<svg width="14.400024" height="14.400146" viewBox="0 0 14.4 14.4001" fill="none" xmlns="http://www.w3.org/2000/svg" xmlns:xlink="http://www.w3.org/1999/xlink">
	<desc>
			Created with Pixso.
	</desc>
	<defs/>
	<path id="Vector" d="M7.2 0C5.77 0 4.38 0.42 3.19 1.21C2.01 2 1.09 3.12 0.54 4.44C0 5.76 -0.14 7.2 0.13 8.6C0.41 10 1.1 11.28 2.1 12.29C3.11 13.29 4.39 13.98 5.79 14.26C7.19 14.53 8.63 14.39 9.95 13.85C11.27 13.3 12.39 12.38 13.18 11.2C13.97 10.01 14.4 8.62 14.4 7.19C14.4 5.29 13.64 3.45 12.29 2.1C10.94 0.75 9.1 0 7.2 0ZM10.58 5.16L7.03 10.09C6.92 10.23 6.77 10.33 6.59 10.37C6.42 10.41 6.24 10.38 6.08 10.29L4.04 9.1C3.88 9 3.76 8.84 3.71 8.65C3.67 8.46 3.7 8.26 3.79 8.1C3.89 7.93 4.06 7.81 4.24 7.77C4.43 7.72 4.63 7.75 4.79 7.85L6.24 8.71L9.44 4.32C9.56 4.2 9.72 4.13 9.89 4.11C10.05 4.1 10.22 4.14 10.36 4.24C10.5 4.33 10.6 4.47 10.65 4.63C10.69 4.8 10.68 4.97 10.61 5.12L10.58 5.16Z" fill="#646464" fill-opacity="1.000000" fill-rule="nonzero"/>
</svg>
